<svg width="32" height="32" viewBox="0 0 32 32" fill="none" xmlns="http://www.w3.org/2000/svg">
<path d="M11 15V11C11 9.67392 11.5268 8.40215 12.4645 7.46447C13.4021 6.52678 14.6739 6 16 6C17.3261 6 18.5979 6.52678 19.5355 7.46447C20.4732 8.40215 21 9.67392 21 11V15" stroke="url(#paint0_linear_52_202)" stroke-width="2" stroke-linecap="round" stroke-linejoin="round"/>
<path d="M23 15H9C7.89543 15 7 15.8954 7 17V24C7 25.1046 7.89543 26 9 26H23C24.1046 26 25 25.1046 25 24V17C25 15.8954 24.1046 15 23 15Z" fill="url(#paint1_linear_52_202)" stroke="url(#paint2_linear_52_202)" stroke-linecap="round" stroke-linejoin="round"/>
<defs>
<linearGradient id="paint0_linear_52_202" x1="20.2857" y1="6.81818" x2="12.7945" y2="15.2063" gradientUnits="userSpaceOnUse">
<stop stop-color="#5390E3"/>
<stop offset="1" stop-color="#1357B3"/>
</linearGradient>
<linearGradient id="paint1_linear_52_202" x1="23.7143" y1="16" x2="15.5434" y2="29.4742" gradientUnits="userSpaceOnUse">
<stop stop-color="#5390E3"/>
<stop offset="1" stop-color="#1357B3"/>
</linearGradient>
<linearGradient id="paint2_linear_52_202" x1="23.7143" y1="16" x2="15.5434" y2="29.4742" gradientUnits="userSpaceOnUse">
<stop stop-color="#5390E3"/>
<stop offset="1" stop-color="#1357B3"/>
</linearGradient>
</defs>
</svg>
