<svg width="128" height="128" viewBox="0 0 128 128" fill="none" xmlns="http://www.w3.org/2000/svg">
<g id="icon-star">
<circle id="Ellipse 318" cx="64" cy="64" r="64" fill="#0F141F"/>
<path id="Star 1" d="M62.4782 30.2831C62.9571 28.809 65.0426 28.809 65.5215 30.2831L72.262 51.028C72.4762 51.6873 73.0905 52.1336 73.7837 52.1336H95.5961C97.1461 52.1336 97.7905 54.117 96.5366 55.028L78.8899 67.8491C78.3291 68.2565 78.0945 68.9787 78.3087 69.6379L85.0491 90.3828C85.5281 91.8569 83.8409 93.0827 82.587 92.1717L64.9403 79.3506C64.3795 78.9432 63.6202 78.9432 63.0594 79.3506L45.4127 92.1717C44.1588 93.0827 42.4716 91.8569 42.9506 90.3828L49.691 69.6379C49.9052 68.9787 49.6706 68.2565 49.1098 67.8491L31.4631 55.028C30.2092 54.117 30.8536 52.1336 32.4036 52.1336H54.216C54.9092 52.1336 55.5235 51.6873 55.7377 51.028L62.4782 30.2831Z" fill="url(#paint0_linear_397_499)"/>
</g>
<defs>
<linearGradient id="paint0_linear_397_499" x1="96.9141" y1="32.5817" x2="32.5817" y2="97.4128" gradientUnits="userSpaceOnUse">
<stop stop-color="#5390E3"/>
<stop offset="1" stop-color="#1357B3"/>
</linearGradient>
</defs>
</svg>
